<?xml version="1.0" encoding="utf-8"?>
<!-- Generator: Adobe Illustrator 19.0.0, SVG Export Plug-In . SVG Version: 6.00 Build 0)  -->
<svg version="1.1" id="Layer_1" xmlns="http://www.w3.org/2000/svg" xmlns:xlink="http://www.w3.org/1999/xlink" x="0px" y="0px"
	 viewBox="0 0 139.7 139.7" style="enable-background:new 0 0 139.7 139.7;" xml:space="preserve">
<style type="text/css">
	.st0{clip-path:url(#XMLID_54_);}
	.st1{fill:#354A5E;}
	.st2{fill:#67C6B9;}
	.st3{fill:#CFD6E0;}
	.st4{fill:#F6B64B;}
	.st5{fill:#FFD15C;}
	.st6{fill:#E8EAE9;}
	.st7{fill:#F3F3F3;}
	.st8{fill:#50C0AA;}
	.st9{fill:#F3705A;}
</style>
<g id="XMLID_233_">
	<defs>
		<circle id="XMLID_234_" cx="69.9" cy="69.9" r="69.9"/>
	</defs>
	<use xlink:href="#XMLID_234_"  style="overflow:visible;fill:#ADADAD;"/>
	<clipPath id="XMLID_54_">
		<use xlink:href="#XMLID_234_"  style="overflow:visible;"/>
	</clipPath>
	<g id="XMLID_235_" class="st0">
		<path id="XMLID_252_" class="st1" d="M114.6,126.8H25.1l0,0c8.5-12.7,13.2-27.8,13.2-43.3V60.6c0-17.4,14.1-31.6,31.6-31.6l0,0
			c17.4,0,31.6,14.1,31.6,31.6v22.8C101.4,98.8,105.9,113.9,114.6,126.8L114.6,126.8L114.6,126.8z"/>
		<path id="XMLID_251_" class="st2" d="M59.7,141.7l-11.1-34.2l-15.8,5.4c-10.1,3.5-17,13.2-17,24v4.7H59.7L59.7,141.7z"/>
		<path id="XMLID_250_" class="st2" d="M123.8,141.7V137c0-10.8-6.8-20.5-17-24l-15.8-5.4L80,141.7H123.8L123.8,141.7z"/>
		<polygon id="XMLID_249_" class="st3" points="80,141.7 89.7,111.1 53.8,111.1 59.7,141.7 80,141.7 		"/>
		<polygon id="XMLID_248_" class="st4" points="85.4,85.6 69.9,73.4 54.3,85.6 54.3,98.8 69.9,111.1 85.4,98.8 85.4,85.6 		"/>
		<path id="XMLID_247_" class="st5" d="M93.2,65.6c0,20.3-10.4,36.7-23.3,36.7c-13,0-23.3-16.5-23.3-36.7c0-0.7,0-4.9,0-5.7l0,0
			c1.2-0.2,21.9-2.4,28.3-12.2c5.7,4.7,9.7,7.1,17.9,8.5c0.2,1.2,0.2,6.1,0.2,7.5C93.2,64.2,93.2,64.9,93.2,65.6L93.2,65.6z"/>
		<path id="XMLID_246_" class="st6" d="M99.3,76.9c-0.7,0-1.4,0.5-1.6,1.4c-0.5,6.6-5.7,11.8-12.2,12.2l-11.1,0.9v3.1l11.3-0.9
			c8-0.7,14.4-7.1,14.8-15.1C100.7,77.6,100.3,76.9,99.3,76.9L99.3,76.9z"/>
		<polygon id="XMLID_245_" class="st7" points="85.4,98.8 69.9,111.1 82.8,126.1 89.7,108.2 85.4,98.8 		"/>
		<polygon id="XMLID_244_" class="st8" points="88.9,141.7 97,123.3 89.7,116.9 101.2,115.8 87.1,102.3 77.6,141.7 88.9,141.7 		"/>
		<path id="XMLID_243_" class="st9" d="M40.9,70.1c-2.4-10.1,0.5-20.7,7.8-28c5.9-5.7,13.2-8.7,21.2-8.7c8,0,15.3,3.1,21,8.7
			c7.5,7.5,10.4,18.1,7.8,28h4.9c2.4-11.3-0.9-23.1-9.4-31.6c-6.4-6.4-15.1-9.9-24.3-9.9S52,32.1,45.6,38.7
			C37.4,47,33.8,59,36.2,70.3h4.7V70.1L40.9,70.1z"/>
		<path id="XMLID_242_" class="st9" d="M95.1,81.8c4.9,0.7,9.4-2.4,10.4-7.3c0.7-4.9-2.4-9.4-7.3-10.4L95.1,81.8L95.1,81.8z"/>
		<path id="XMLID_241_" class="st6" d="M92.2,84c1.4,0.2,2.8-0.7,3.1-2.1l3.1-17.7c0.2-1.4-0.7-2.8-2.1-3.1
			c-1.4-0.2-2.8,0.7-3.1,2.1l-3.1,17.7C89.7,82.3,90.6,83.7,92.2,84L92.2,84z"/>
		<path id="XMLID_240_" class="st9" d="M44.7,81.8c-4.9,0.7-9.4-2.4-10.4-7.3c-0.7-4.9,2.4-9.4,7.3-10.4L44.7,81.8L44.7,81.8z"/>
		<path id="XMLID_239_" class="st6" d="M47.5,84c-1.4,0.2-2.8-0.7-3.1-2.1l-3.1-17.7c-0.2-1.4,0.7-2.8,2.1-3.1
			c1.4-0.2,2.8,0.7,3.1,2.1l3.1,17.7C50.1,82.3,49.1,83.7,47.5,84L47.5,84z"/>
		<path id="XMLID_238_" class="st1" d="M71.5,89.6c2.3,0,4.2,1.6,4.2,3.5c0,2-1.9,3.5-4.2,3.5c-2.3,0-4.2-1.6-4.2-3.5
			C67.3,91.2,69.2,89.6,71.5,89.6L71.5,89.6z"/>
		<polygon id="XMLID_237_" class="st7" points="54.3,98.8 69.9,111.1 56.9,126.1 50.1,108.2 54.3,98.8 		"/>
		<polygon id="XMLID_236_" class="st8" points="50.8,141.7 42.8,123.3 50.1,116.9 38.5,115.8 52.7,102.3 62.1,141.7 50.8,141.7
			"/>
	</g>
</g>
</svg>
