<?xml version="1.0" encoding="utf-8"?>
<!-- Generator: Adobe Illustrator 19.0.0, SVG Export Plug-In . SVG Version: 6.00 Build 0)  -->
<svg version="1.1" id="Layer_1" xmlns="http://www.w3.org/2000/svg" xmlns:xlink="http://www.w3.org/1999/xlink" x="0px" y="0px"
	 viewBox="0 0 288 90.7" style="enable-background:new 0 0 288 90.7;" xml:space="preserve">
<style type="text/css">
	.st0{fill-rule:evenodd;clip-rule:evenodd;}
	.st1{fill-rule:evenodd;clip-rule:evenodd;fill:#528AE9;}
</style>
<g>
	<path id="XMLID_7_" class="st0" d="M51.8,73.9c-2,0.5-4.4,0.7-6.7,0.7c-16.3,0-29.4-13.3-29.4-29.6S28.8,15.6,45,15.6
		S74.6,28.8,74.6,45c0,9.9-5,18.8-12.5,24.1l10.4,12.1C83.2,72.9,90.3,60,90.3,45.3C90.3,20.3,70.2,0,45,0C20.2,0.1,0,20.6,0,45.4
		s20.2,45.3,45.3,45.3c6.5,0,12.6-1.5,18.1-3.9L51.8,73.9z"/>
	<path id="XMLID_6_" class="st1" d="M64.5,45.4c0-10.6-8.6-19.2-19.2-19.2s-19.4,8.6-19.4,19.2s8.7,19.2,19.4,19.2
		S64.5,56.1,64.5,45.4L64.5,45.4z"/>
	<path class="st0" d="M148.2,46.9c0,3.2-0.5,6.6-1.7,9.7c-1.2,3-2.8,5.6-4.8,7.9c-2.2,2.3-4.6,4-7.4,5.2c-2.8,1.3-6,2-9.4,2h-20.7
		V22h20.7c3.4,0,6.6,0.8,9.4,2c2.8,1.2,5.2,3.2,7.4,5.2c2.2,2.3,3.8,5,4.8,8.1C147.5,40.3,148.2,43.6,148.2,46.9L148.2,46.9z
		 M138.5,46.7c0-2.3-0.4-4.6-1.1-6.5c-0.8-2.2-1.7-3.9-3.2-5.5c-1.5-1.6-3.2-2.8-5.1-3.8c-2.2-0.8-4.4-1.3-6.9-1.3h-8.3v33.9h8.3
		c2.4,0,4.7-0.4,6.7-1.2c1.9-0.9,3.6-2,5.1-3.5c1.3-1.6,2.4-3.4,3.1-5.4C138.1,51.2,138.5,49.2,138.5,46.7L138.5,46.7z"/>
	<polygon id="XMLID_3_" class="st0" points="191.8,71.8 159,71.8 159,22 191.8,22 191.8,30.1 168.5,30.1 168.5,41.9 191.4,41.9 
		191.4,49.7 168.5,49.7 168.5,63.3 191.8,63.3 	"/>
	<path id="XMLID_2_" class="st0" d="M235.8,58.8c0,1.9-0.4,3.6-1.2,5.2c-0.9,1.6-2,3.2-3.4,4.4c-1.5,1.2-3.2,2.3-5.1,3
		c-2,0.8-4.3,1.1-6.6,1.1c-2.2,0-4-0.1-5.8-0.3c-1.9-0.3-3.4-0.8-4.8-1.3c-1.3-0.5-3-1.2-4.4-2c-1.3-0.9-2.8-2-4.2-3.1l6.9-6.9
		c1.9,1.6,3.9,2.8,5.8,3.5c2,0.7,3.9,1.1,6.2,1.1c0.9,0,1.9-0.1,2.7-0.4c0.9-0.3,1.6-0.7,2.2-0.9c0.5-0.5,1.1-1.1,1.3-1.6
		c0.4-0.5,0.5-1.2,0.5-2.2c0-0.7-0.1-1.5-0.3-2.2c-0.4-0.7-0.9-1.2-1.6-1.7c-0.7-0.5-1.7-1.2-3.2-1.7c-1.3-0.5-3-1.2-5.1-2
		c-1.7-0.7-3.5-1.3-5.2-2.3c-1.7-0.8-3.2-1.9-4.4-3c-1.2-1.2-2.3-2.7-3.1-4.3c-0.7-1.5-0.9-3.5-0.9-5.6c0-2,0.3-4,1.2-5.8
		c0.8-1.7,1.9-3.4,3.5-4.6c1.5-1.2,3.2-2.3,5.1-3.1c2-0.7,4-0.9,6.5-0.9c3.8,0,7,0.5,9.4,1.3c2.7,1.1,5,2.4,7,4.4l-6.7,6.7
		c-1.2-1.2-2.7-2.2-4.3-2.8c-1.6-0.7-3.4-0.9-5.4-0.9c-0.9,0-1.9,0.3-2.7,0.4c-0.9,0.4-1.5,0.7-2.2,1.1c-0.5,0.5-1.1,1.1-1.5,1.6
		c-0.3,0.7-0.4,1.2-0.4,1.9s0.1,1.5,0.4,2.2c0.4,0.7,0.9,1.2,1.6,1.9c0.8,0.5,1.7,1.3,3.2,1.7c1.5,0.5,3,1.3,5,2
		c2.4,0.9,4.6,1.7,6.3,2.8c1.7,1.1,3.2,2.2,4.4,3.4c1.1,1.2,1.9,2.7,2.4,4.3C235.4,55,235.8,56.7,235.8,58.8L235.8,58.8z"/>
	<polygon id="XMLID_1_" class="st0" points="288,71.8 275.3,71.8 255.6,49.9 255.6,71.8 246,71.8 246,22 255.6,22 255.6,44.2 
		275.9,22 287.4,22 265,46.5 	"/>
</g>
</svg>
