<?xml version="1.0" encoding="utf-8"?>
<!-- Generator: Adobe Illustrator 19.0.0, SVG Export Plug-In . SVG Version: 6.00 Build 0)  -->
<svg version="1.1" id="Layer_1" xmlns="http://www.w3.org/2000/svg" xmlns:xlink="http://www.w3.org/1999/xlink" x="0px" y="0px"
	 viewBox="-812 187.8 86.3 86.3" style="enable-background:new -812 187.8 86.3 86.3;" xml:space="preserve">
<style type="text/css">
	.st0{fill:#221F20;}
	.st1{fill:#4173A9;}
</style>
<g>
	<path id="XMLID_7_" class="st0" d="M-763.2,257.8c-2,0.4-4.1,0.8-6.3,0.8c-15.3,0-27.7-12.3-27.7-27.7s12.3-27.7,27.7-27.7
		s27.7,12.3,27.7,27.7c0,9.4-4.6,17.6-11.7,22.6l9.8,11.1c10.3-7.7,16.9-20,16.9-33.8c-0.1-23.5-19.2-42.6-42.7-42.6
		s-42.6,19.1-42.6,42.6s19.1,42.4,42.6,42.4c6.2,0,11.9-1.3,17.2-3.5L-763.2,257.8z"/>
	<path id="XMLID_6_" class="st1" d="M-751.4,230.8c0-10-8.2-18.1-18.1-18.1s-18.1,8.2-18.1,18.1s8.2,18,18.1,18
		S-751.4,240.8-751.4,230.8L-751.4,230.8z"/>
</g>
</svg>
