<?xml version="1.0" encoding="utf-8"?>
<!-- Generator: Adobe Illustrator 19.0.0, SVG Export Plug-In . SVG Version: 6.00 Build 0)  -->
<svg version="1.1" id="Layer_1" xmlns="http://www.w3.org/2000/svg" xmlns:xlink="http://www.w3.org/1999/xlink" x="0px" y="0px"
	 viewBox="-554 353 256 88" style="enable-background:new -554 353 256 88;" xml:space="preserve">
<style type="text/css">
	.st0{fill:#221F20;}
	.st1{fill:#4173A9;}
</style>
<g id="XMLID_8_">
	<path id="XMLID_7_" class="st0" d="M-505.8,422.8c-1.8,0.4-3.7,0.7-5.7,0.7c-13.9,0-25.1-11.2-25.1-25.1s11.2-25.1,25.1-25.1
		c13.9,0,25.1,11.2,25.1,25.1c0,8.5-4.2,16-10.6,20.5l8.9,10.1c9.3-7,15.3-18.1,15.3-30.7c-0.1-21.3-17.4-38.6-38.7-38.6
		s-38.6,17.3-38.6,38.6c0,21.3,17.3,38.5,38.6,38.5c5.6,0,10.8-1.2,15.6-3.2L-505.8,422.8z"/>
	<path id="XMLID_6_" class="st1" d="M-495.1,398.3c0-9.1-7.4-16.4-16.4-16.4s-16.4,7.4-16.4,16.4s7.4,16.3,16.4,16.3
		S-495.1,407.4-495.1,398.3L-495.1,398.3z"/>
	<polygon id="XMLID_5_" class="st1" points="-324.4,392.6 -312.3,378.2 -302.7,378.2 -319.6,398.3 -302.7,418.3 -312.3,418.3 
		-324.4,403.9 -336.6,418.3 -346.2,418.3 -329.2,398.3 -346.2,378.2 -336.6,378.2 	"/>
	<path id="XMLID_11_" class="st0" d="M-397.9,409.4c1.9-1.1,3.5-2.5,4.6-4.3l0.3-0.4h8.2l-0.4,1.1c-1.5,3.7-4.1,7-7.4,9.1
		c-3.2,2.2-7.1,3.5-11.2,3.5c-5.6,0-10.6-2.3-14.2-5.9s-5.8-8.7-5.8-14.2c0-5.6,2.2-10.6,5.8-14.2c3.7-3.6,8.7-5.9,14.2-5.9
		c5.6,0,10.6,2.3,14.2,5.9c3.6,3.6,5.9,8.7,5.9,14.2v1.4h-32.7c0.3,3,1.7,5.6,3.8,7.7c2.2,2.1,5.3,3.5,8.7,3.5
		C-401.8,410.9-399.7,410.3-397.9,409.4L-397.9,409.4z M-396.9,387.8c-2-1.3-4.5-2.1-7-2.1c-2.6,0-5,0.8-7,2.1
		c-1.7,1.2-3.2,2.8-4.1,4.7h22.3C-393.7,390.5-395.2,388.9-396.9,387.8L-396.9,387.8z M-466.9,378h6.7v20.3c0,3.4,1.4,6.6,3.7,8.9
		c2.3,2.3,5.4,3.7,8.9,3.7s6.6-1.4,8.9-3.7c2.3-2.3,3.7-5.4,3.7-8.9V378h7.6v20.3c0,5.5-2.3,10.6-6,14.2c-3.7,3.7-8.7,6-14.2,6
		c-5.6,0-10.6-2.3-14.2-6c-3.7-3.7-5.9-8.7-5.9-14.2V378H-466.9z"/>
	<path id="XMLID_1_" class="st0" d="M-369.6,411.3h21.4v7.2l-34.3,0.1l-0.1-6.4l23.1-21.2l0.9-0.9c2.4-2.1,2.5-5-2.4-4.7h-21.7v-7.3
		h24.9c9,0.5,12.9,7.5,6.2,15.5L-369.6,411.3z"/>
</g>
</svg>
