<?xml version="1.0" encoding="utf-8"?>
<!-- Generator: Adobe Illustrator 19.0.0, SVG Export Plug-In . SVG Version: 6.00 Build 0)  -->
<svg version="1.1" id="Layer_1" xmlns="http://www.w3.org/2000/svg" xmlns:xlink="http://www.w3.org/1999/xlink" x="0px" y="0px"
	 viewBox="0 0 30.6 33" style="enable-background:new 0 0 30.6 33;" xml:space="preserve">
<style type="text/css">
	.st0{fill-rule:evenodd;clip-rule:evenodd;fill:#FFFFFF;}
</style>
<g id="XMLID_12_">
	<path id="XMLID_28_" class="st0" d="M17.6,26.2c-0.7,0.2-1.5,0.3-2.3,0.3c-5.5,0-10-4.5-10-10c0-5.5,4.5-10,10-10
		c5.5,0,10,4.5,10,10c0,3.4-1.7,6.4-4.2,8.2l3.5,4c3.7-2.8,6-7.2,6-12.2c0-8.5-6.8-15.3-15.3-15.3C6.8,1.2,0,8.1,0,16.5
		s6.8,15.3,15.3,15.3c2.2,0,4.3-0.5,6.2-1.3L17.6,26.2z"/>
	<path id="XMLID_26_" class="st0" d="M21.8,16.5c0-3.6-2.9-6.5-6.5-6.5c-3.6,0-6.5,2.9-6.5,6.5c0,3.6,2.9,6.5,6.5,6.5
		C18.9,23,21.8,20.1,21.8,16.5L21.8,16.5z"/>
</g>
</svg>
