<?xml version="1.0" encoding="utf-8"?>
<!-- Generator: Adobe Illustrator 22.0.1, SVG Export Plug-In . SVG Version: 6.00 Build 0)  -->
<svg version="1.1" id="Layer_1" xmlns="http://www.w3.org/2000/svg" xmlns:xlink="http://www.w3.org/1999/xlink" x="0px" y="0px"
	 viewBox="0 0 168 174.8" style="enable-background:new 0 0 168 174.8;" xml:space="preserve">
<style type="text/css">
	.st0{fill:#FFC380;}
	.st1{fill:#FFCF99;}
	.st2{fill:#696A6D;}
	.st3{fill:#44A4EC;}
	.st4{fill:#73C3FF;}
</style>
<g>
	<path class="st0" d="M112.4,86.6h-43c-2.2,0-4.2-1.5-4.8-3.7c-0.6-2.2,0.3-4.5,2.3-5.6c18.7-11.1,28.5-24,29.8-39.5
		c0.4-5.4,5.2-9.7,10.7-9.6c5.6,0.1,10.8,2.3,14.6,6.3c3.9,4,6,9.2,6,14.8l0,0V51c0,13.6-4,22.2-11.4,33.5
		C115.6,85.7,114,86.6,112.4,86.6z"/>
	<path class="st1" d="M165.1,92.2c0-8.6-7-15.6-15.6-15.6H69.3c-0.9,0-1.8,0.2-2.5,0.7c-5.6,3.3-11.3,6.1-15.9,8.3
		c-1.6,0.8-3.1,1.5-4.5,2.2c-1.7,0.8-2.8,2.6-2.8,4.5v63.6c0,1.9,1.1,3.6,2.8,4.5c20.1,10,36.8,11.3,56.3,11.3c3,0,6.1,0,9.3-0.1
		c3.5,0,7.1-0.1,10.9-0.1h15.7c8.6,0,15.6-7,15.6-15.6c0-2.9-0.8-5.6-2.2-7.9c4.5-2.7,7.5-7.7,7.5-13.3c0-2.9-0.8-5.6-2.2-7.9
		c4.5-2.7,7.5-7.7,7.5-13.3c0-4-1.5-7.7-4.1-10.5C163.6,100,165.1,96.2,165.1,92.2z"/>
	<g>
		<path class="st2" d="M154.8,48.8h-10.7c-2.7,0-5-2.2-5-5s2.2-5,5-5h10.6c2.7,0,5,2.2,5,5S157.5,48.8,154.8,48.8z"/>
		<path class="st2" d="M80.5,48.8H69.9c-2.7,0-5-2.2-5-5s2.2-5,5-5h10.6c2.7,0,5,2.2,5,5S83.2,48.8,80.5,48.8z"/>
		<path class="st2" d="M96.4,21.2c-1.7,0-3.4-0.9-4.3-2.5l-5.3-9.2c-1.4-2.4-0.6-5.4,1.8-6.8C91,1.3,94,2.1,95.4,4.5l5.3,9.2
			c1.4,2.4,0.6,5.4-1.8,6.8C98.1,21,97.2,21.2,96.4,21.2z"/>
		<path class="st2" d="M128.2,21.2c-0.8,0-1.7-0.2-2.5-0.7c-2.4-1.4-3.2-4.4-1.8-6.8l5.3-9.2c1.4-2.4,4.4-3.2,6.8-1.8
			s3.2,4.4,1.8,6.8l-5.3,9.2C131.6,20.3,129.9,21.2,128.2,21.2z"/>
	</g>
	<path class="st3" d="M48.6,76.6H6.1c-2.7,0-5,2.2-5,5v84.9c0,2.7,2.2,5,5,5h31.8c6.1-0.1,11.4-3.6,13.9-8.7c1.1-2.1,1.6-4.5,1.6-7
		V81.5C53.6,78.8,51.4,76.6,48.6,76.6z"/>
	<path class="st4" d="M32.4,145v26.5h-10V145c0-2.7,2.2-5,5-5C30.1,140,32.4,142.2,32.4,145z"/>
</g>
</svg>
