<?xml version="1.0" encoding="utf-8"?>
<!-- Generator: Adobe Illustrator 22.0.1, SVG Export Plug-In . SVG Version: 6.00 Build 0)  -->
<svg version="1.1" id="Layer_1" xmlns="http://www.w3.org/2000/svg" xmlns:xlink="http://www.w3.org/1999/xlink" x="0px" y="0px"
	 viewBox="0 0 512 318" style="enable-background:new 0 0 512 318;" xml:space="preserve">
<style type="text/css">
	.st0{fill:#FFFFFF;stroke:#D3D3D3;stroke-miterlimit:10;}
	.st1{fill:#4B4B4C;}
	.st2{fill:#57575B;}
	.st3{fill:#5585B9;}
	.st4{fill:#696A6D;}
	.st5{fill:#F0F3F4;}
	.st6{fill:#FFC380;}
	.st7{fill:#FFCF99;}
	.st8{fill:#44A4EC;}
	.st9{fill:#73C3FF;}
</style>
<g>
	<g>
		<path class="st0" d="M375,244.7H31.9c-1.1,0-2-0.9-2-2v-220c0-1.1,0.9-2,2-2H375c1.1,0,2,0.9,2,2v220
			C377,243.8,376.1,244.7,375,244.7z"/>
		<path class="st1" d="M392.9,286.2H15c-7.7,0-14-6.3-14-14v-7c0-3.9,3.1-7,7-7h392c3.9,0,7,3.1,7,7v7
			C406.9,280,400.7,286.2,392.9,286.2L392.9,286.2z"/>
		<path class="st2" d="M227.6,272.2h-47.3c-2.7,0-5.1-1.5-6.3-3.9l-5.1-10.1h70l-5.1,10.1C232.7,270.7,230.3,272.2,227.6,272.2
			L227.6,272.2z"/>
		<rect x="25.6" y="20.7" class="st3" width="359.3" height="36.5"/>
		<path class="st4" d="M371.9,230.2c0,3.9-3.1,7-7,7H43c-3.9,0-7-3.1-7-7v-196c0-3.9,3.1-7,7-7h322c3.9,0,7,3.1,7,7V230.2
			L371.9,230.2z M371.9,6.2H36c-11.6,0-21,9.4-21,21v231h378v-231C392.9,15.6,383.5,6.2,371.9,6.2L371.9,6.2z"/>
		<rect x="36" y="57.2" class="st5" width="82.5" height="180.1"/>
		<rect x="134.2" y="70" class="st5" width="219.1" height="30.3"/>
		<rect x="134.2" y="111.9" class="st5" width="219.1" height="30.3"/>
		<rect x="134.2" y="153.8" class="st5" width="219.1" height="30.3"/>
		<rect x="134.2" y="195.6" class="st5" width="219.1" height="30.3"/>
	</g>
	<g>
		<path class="st6" d="M459.3,225.7h-43c-2.2,0-4.2-1.5-4.8-3.7c-0.6-2.2,0.3-4.5,2.3-5.6c18.7-11.1,28.5-24,29.8-39.5
			c0.4-5.4,5.2-9.7,10.7-9.6c5.6,0.1,10.8,2.3,14.6,6.3c3.9,4,6,9.2,6,14.8c0,0,0,0,0,0v1.7c0,13.6-4,22.2-11.4,33.5
			C462.5,224.8,460.9,225.7,459.3,225.7z"/>
		<path class="st7" d="M512,231.3c0-8.6-7-15.6-15.6-15.6h-80.2c-0.9,0-1.8,0.2-2.5,0.7c-5.6,3.3-11.3,6.1-15.9,8.3
			c-1.6,0.8-3.1,1.5-4.5,2.2c-1.7,0.8-2.8,2.6-2.8,4.5V295c0,1.9,1.1,3.6,2.8,4.5c20.1,10,36.8,11.3,56.3,11.3c3,0,6.1,0,9.3-0.1
			c3.5,0,7.1-0.1,10.9-0.1h15.7c8.6,0,15.6-7,15.6-15.6c0-2.9-0.8-5.6-2.2-7.9c4.5-2.7,7.5-7.7,7.5-13.3c0-2.9-0.8-5.6-2.2-7.9
			c4.5-2.7,7.5-7.7,7.5-13.3c0-4-1.5-7.7-4.1-10.5C510.5,239.1,512,235.3,512,231.3z"/>
		<g>
			<path class="st4" d="M501.7,187.9H491c-2.7,0-5-2.2-5-5s2.2-5,5-5h10.6c2.7,0,5,2.2,5,5S504.4,187.9,501.7,187.9z"/>
			<path class="st4" d="M427.4,187.9h-10.6c-2.7,0-5-2.2-5-5s2.2-5,5-5h10.6c2.7,0,5,2.2,5,5S430.1,187.9,427.4,187.9z"/>
			<path class="st4" d="M443.3,160.3c-1.7,0-3.4-0.9-4.3-2.5l-5.3-9.2c-1.4-2.4-0.6-5.4,1.8-6.8c2.4-1.4,5.4-0.6,6.8,1.8l5.3,9.2
				c1.4,2.4,0.6,5.4-1.8,6.8C445,160.1,444.1,160.3,443.3,160.3z"/>
			<path class="st4" d="M475.1,160.3c-0.8,0-1.7-0.2-2.5-0.7c-2.4-1.4-3.2-4.4-1.8-6.8l5.3-9.2c1.4-2.4,4.4-3.2,6.8-1.8
				c2.4,1.4,3.2,4.4,1.8,6.8l-5.3,9.2C478.5,159.4,476.8,160.3,475.1,160.3z"/>
		</g>
		<path class="st8" d="M395.5,215.7h-42.5c-2.7,0-5,2.2-5,5v84.9c0,2.7,2.2,5,5,5h31.8c6.1-0.1,11.4-3.6,13.9-8.7
			c1.1-2.1,1.6-4.5,1.6-7v-74.3C400.5,217.9,398.3,215.7,395.5,215.7z"/>
		<path class="st9" d="M379.3,284.1v26.5h-10v-26.5c0-2.7,2.2-5,5-5C377,279.1,379.3,281.3,379.3,284.1z"/>
	</g>
</g>
</svg>
